<mxfile host="app.diagrams.net" modified="2023-10-09T02:25:52.356Z" agent="Mozilla/5.0 (Macintosh; Intel Mac OS X 10_15_7) AppleWebKit/537.36 (KHTML, like Gecko) Chrome/117.0.0.0 Safari/537.36" version="22.0.4" etag="s9Hk1F96cVtKc6ulj9AW" type="github">
  <diagram name="Page-1" id="M-GNuZ2Nx6LaRtDJYuYm">
    <mxGraphModel>
      <root>
        <mxCell id="0" />
        <mxCell id="1" parent="0" />
      </root>
    </mxGraphModel>
  </diagram>
</mxfile>
